<?xml version="1.0" encoding="UTF-8" standalone="no"?>
<!-- Created with Inkscape (http://www.inkscape.org/) -->

<svg
   width="100mm"
   height="37mm"
   viewBox="0 0 100 37"
   version="1.1"
   id="svg5"
   inkscape:version="1.4.2 (ebf0e940d0, 2025-05-08)"
   sodipodi:docname="fedora_remix_light.svg"
   xmlns:inkscape="http://www.inkscape.org/namespaces/inkscape"
   xmlns:sodipodi="http://sodipodi.sourceforge.net/DTD/sodipodi-0.dtd"
   xmlns="http://www.w3.org/2000/svg"
   xmlns:svg="http://www.w3.org/2000/svg">
  <sodipodi:namedview
     id="namedview7"
     pagecolor="#505050"
     bordercolor="#ffffff"
     borderopacity="1"
     inkscape:showpageshadow="0"
     inkscape:pageopacity="0"
     inkscape:pagecheckerboard="1"
     inkscape:deskcolor="#505050"
     inkscape:document-units="mm"
     showgrid="false"
     inkscape:zoom="1.1480712"
     inkscape:cx="269.58259"
     inkscape:cy="177.68933"
     inkscape:window-width="1280"
     inkscape:window-height="731"
     inkscape:window-x="0"
     inkscape:window-y="0"
     inkscape:window-maximized="1"
     inkscape:current-layer="layer1"
     showguides="true" />
  <defs
     id="defs2" />
  <g
     inkscape:label="Layer 1"
     inkscape:groupmode="layer"
     id="layer1"
     transform="translate(-1100)">
    <g
       id="g290323"
       transform="matrix(1.0407221,0,0,1.0407221,1312.4984,-247.28632)">
      <path
         inkscape:connector-curvature="0"
         style="fill:#51a2da;fill-opacity:1;stroke:none;stroke-width:0.076635"
         id="rect2467"
         d="m -182.80789,259.04292 h 55.74919 c 3.7211,0 6.71677,2.99567 6.71677,6.71676 0,3.72109 -2.99567,6.71678 -6.71677,6.71678 h -55.74919 c -3.72109,0 -6.71677,-2.99569 -6.71677,-6.71678 0,-3.72109 2.99568,-6.71676 6.71677,-6.71676 z" />
      <g
         id="g1838"
         style="fill:#51a2da;fill-opacity:1;stroke-width:0.543556"
         transform="matrix(0.6388729,0,0,0.6388729,-239.4515,163.51681)">
        <path
           d="m 96.729167,125.3578 c -3.595373,1.38954 -6.03555,4.80292 -6.045574,9.01632 -0.0105,4.41352 3.082522,10.10943 9.487987,10.15149 4.30838,0.0283 6.46291,-1.58283 7.62603,-2.6768 0.77153,-0.68369 0.8255,-1.87009 0.11854,-2.61974 -0.70838,-0.75106 -1.89761,-0.76906 -2.6268,-0.0385 -0.86818,0.81562 -2.14666,2.02425 -5.772524,1.62173 -1.555755,-0.17216 -3.227339,-1.43528 -3.785318,-2.40173 l 11.879842,-5.05073 c 0.9084,-0.40358 1.32573,-1.45803 0.94121,-2.37421 -2.12076,-4.1731 -5.88103,-7.92444 -11.823393,-5.62783 z m 7.456683,5.48995 -9.885684,4.22249 c -0.705852,-2.63428 2.187448,-5.73353 3.76568,-6.31024 2.366314,-0.86468 4.977204,0.10837 6.120004,2.08775 z"
           style="fill:#51a2da;fill-opacity:1;fill-rule:evenodd;stroke:none;stroke-width:0.552188"
           id="path1822"
           sodipodi:nodetypes="ssscccccccsccsc" />
        <path
           id="path1824"
           style="fill:#51a2da;fill-opacity:1;stroke-width:16.1516;stroke-linecap:round;stroke-linejoin:round"
           d="m 142.75841,124.51519 a 10.043481,9.9623653 0 0 0 -10.04462,9.9635 10.043481,9.9623653 0 0 0 10.04462,9.96093 10.043481,9.9623653 0 0 0 10.04204,-9.96093 10.043481,9.9623653 0 0 0 -10.04204,-9.9635 z m 0,3.73185 a 6.2822799,6.2315417 0 0 1 6.28239,6.23165 6.2822799,6.2315417 0 0 1 -6.28239,6.23165 6.2822799,6.2315417 0 0 1 -6.2824,-6.23165 6.2822799,6.2315417 0 0 1 6.2824,-6.23165 z" />
        <path
           style="color:#000000;font-style:normal;font-variant:normal;font-weight:normal;font-stretch:normal;font-size:medium;line-height:normal;font-family:sans-serif;font-variant-ligatures:normal;font-variant-position:normal;font-variant-caps:normal;font-variant-numeric:normal;font-variant-alternates:normal;font-feature-settings:normal;text-indent:0;text-align:start;text-decoration:none;text-decoration-line:none;text-decoration-style:solid;text-decoration-color:#000000;letter-spacing:normal;word-spacing:normal;text-transform:none;writing-mode:lr-tb;direction:ltr;text-orientation:mixed;dominant-baseline:auto;baseline-shift:baseline;text-anchor:start;white-space:normal;shape-padding:0;clip-rule:nonzero;display:inline;overflow:visible;visibility:visible;isolation:auto;mix-blend-mode:normal;color-interpolation:sRGB;color-interpolation-filters:linearRGB;solid-color:#000000;solid-opacity:1;vector-effect:none;fill:#51a2da;fill-opacity:1;fill-rule:nonzero;stroke:none;stroke-width:3.3131;stroke-linecap:round;stroke-linejoin:round;stroke-miterlimit:4;stroke-dasharray:none;stroke-dashoffset:0;stroke-opacity:1;color-rendering:auto;image-rendering:auto;shape-rendering:auto;text-rendering:auto;enable-background:accumulate"
           d="m 157.27615,124.6433 c -1.59548,0 -1.86142,1.31669 -1.85308,1.84776 v 15.98997 c -0.0436,1.03365 0.81202,1.89464 1.88299,1.89464 1.07096,0 1.92667,-0.86099 1.88297,-1.89464 0,0 0.0284,-5.94671 0,-9.75342 -0.0284,-3.80671 3.06985,-4.63179 4.14789,-4.63179 0.80054,0 1.44015,0.44589 2.0745,0.42206 0.94151,-0.0354 1.71459,-0.6668 1.71459,-1.77397 -0.0283,-1.78855 -2.22269,-2.04245 -3.84053,-2.00941 -1.61785,0.0331 -2.9842,0.52982 -4.16721,1.2363 0,0 -0.24663,-1.3275 -1.84212,-1.3275 z"
           id="path1826"
           inkscape:connector-curvature="0"
           sodipodi:nodetypes="zccsczcsczcz" />
        <g
           style="fill:#51a2da;fill-opacity:1;stroke-width:0.885139"
           transform="matrix(1.7992734,0,0,1.7380239,67.446745,-121.99926)"
           id="g1830">
          <path
             style="color:#000000;font-style:normal;font-variant:normal;font-weight:normal;font-stretch:normal;font-size:medium;line-height:normal;font-family:sans-serif;font-variant-ligatures:normal;font-variant-position:normal;font-variant-caps:normal;font-variant-numeric:normal;font-variant-alternates:normal;font-feature-settings:normal;text-indent:0;text-align:start;text-decoration:none;text-decoration-line:none;text-decoration-style:solid;text-decoration-color:#000000;letter-spacing:normal;word-spacing:normal;text-transform:none;writing-mode:lr-tb;direction:ltr;text-orientation:mixed;dominant-baseline:auto;baseline-shift:baseline;text-anchor:start;white-space:normal;shape-padding:0;clip-rule:nonzero;display:inline;overflow:visible;visibility:visible;opacity:1;isolation:auto;mix-blend-mode:normal;color-interpolation:sRGB;color-interpolation-filters:linearRGB;solid-color:#000000;solid-opacity:1;vector-effect:none;fill:#51a2da;fill-opacity:1;fill-rule:nonzero;stroke:none;stroke-width:1.87352;stroke-linecap:butt;stroke-linejoin:miter;stroke-miterlimit:4;stroke-dasharray:none;stroke-dashoffset:0;stroke-opacity:1;color-rendering:auto;image-rendering:auto;shape-rendering:auto;text-rendering:auto;enable-background:accumulate"
             d="m 60.088341,141.88715 c -1.393394,0 -2.398273,0.42786 -3.13079,0.97048 -1.110459,0.82303 0.08453,2.54386 1.19499,1.72083 0.505399,-0.37438 0.881229,-0.57413 1.9358,-0.57413 1.312636,0.0273 2.368475,0.53812 2.368475,1.55443 -0.703746,0.461 -3.763534,0.84205 -5.406566,1.8093 -1.643032,0.96724 -1.555977,2.18804 -1.555977,2.98017 0,1.73757 1.769154,2.90976 3.301505,2.90976 1.532352,0 2.182891,-0.33275 3.682046,-1.39626 v 0.30438 c -0.04845,1.45961 2.09629,1.45961 2.047845,0 v -6.23787 c 0.0066,-2.58701 -1.787667,-4.00169 -4.437328,-4.04109 z m 2.439505,5.75572 c -5.12e-4,0.68595 0.0092,0.8837 -0.009,1.56941 -0.004,0.8235 -0.503683,1.20524 -1.026925,1.52032 -0.523236,0.31508 -1.586095,0.59147 -2.201906,0.62167 -0.710308,0.0243 -1.65271,-0.1418 -1.702203,-1.01389 5.12e-4,-0.5264 0.246817,-0.85289 0.65127,-1.21646 0.957742,-0.74385 2.255423,-0.99358 4.288768,-1.48105 z"
             id="path1828"
             inkscape:connector-curvature="0"
             sodipodi:nodetypes="ccccczszcccccscscccss" />
        </g>
        <path
           style="font-style:normal;font-variant:normal;font-weight:bold;font-stretch:normal;font-size:medium;line-height:25px;font-family:Comfortaa;-inkscape-font-specification:Comfortaa;letter-spacing:0px;word-spacing:0px;fill:#51a2da;fill-opacity:1;stroke:none;stroke-width:0.834067px;stroke-linecap:butt;stroke-linejoin:miter;stroke-opacity:1"
           d="m 128.56291,116.32562 c -1.15198,-0.0687 -2.00005,1.07152 -1.82333,2.15483 v 8.36367 c -3.63641,-3.04884 -9.55863,-2.83682 -12.91558,0.5392 -3.39481,3.02498 -4.03972,8.51062 -1.57068,12.28835 1.81366,2.85198 5.13136,4.88571 8.55043,4.72423 2.14993,-0.0196 4.2827,-0.9455 5.93583,-2.31651 -0.16962,1.08236 0.66623,2.22553 1.82333,2.15604 1.13581,0.0506 2.01523,-1.07045 1.84088,-2.15482 -0.0197,-8.04418 0.0197,-16.08885 -0.0197,-24.13274 -0.0591,-0.90718 -0.92676,-1.65309 -1.83241,-1.62225 z m -7.9771,12.01866 c 3.28298,-0.0857 6.21551,2.86987 6.15377,6.12271 0.069,3.25587 -2.87355,6.20634 -6.15377,6.12273 -3.11889,0.0827 -5.97784,-2.55935 -6.1372,-5.65665 -0.33212,-3.1928 2.28898,-6.30485 5.49957,-6.55826 0.21182,-0.0207 0.42464,-0.0306 0.63763,-0.0306 z"
           id="path1832"
           inkscape:connector-curvature="0"
           sodipodi:nodetypes="ccccccccccccccccccc" />
        <g
           style="fill:#51a2da;fill-opacity:1;stroke-width:0.90793"
           transform="matrix(1.7361841,0,0,1.7118711,84.821887,-122.89238)"
           id="g1836">
          <path
             style="font-style:normal;font-variant:normal;font-weight:bold;font-stretch:normal;font-size:medium;line-height:25px;font-family:Comfortaa;-inkscape-font-specification:Comfortaa;letter-spacing:0px;word-spacing:0px;fill:#51a2da;fill-opacity:1;stroke:none;stroke-width:1.92177;stroke-linecap:butt;stroke-linejoin:miter;stroke-miterlimit:4;stroke-dasharray:none;stroke-opacity:1"
             d="m -2.5312666,143.62929 v 11.47421 c -0.003,1.4145 2.12023294,1.4145 2.11718234,0 v -7.65727 H 1.7635608 c 0.5092674,0 0.9446445,-0.37386 0.9446445,-0.9741 0,-0.60024 -0.4664127,-0.9648 -0.9446445,-0.9648 h -2.17764176 v -1.76487 c 0,-1.1293 0.8711995,-2.06801 2.62476896,-2.04625 0.6099425,0.008 0.8261384,0.1567 1.048907,0.29442 1.2161282,0.81695 2.3869012,-1.07509 1.1131122,-1.79886 -0.7812122,-0.48483 -1.5111158,-0.65571 -2.3819993,-0.65571 -2.74449516,0 -4.5059235,2.11423 -4.5219745,4.09323 z"
             id="path1834"
             inkscape:connector-curvature="0"
             sodipodi:nodetypes="ccccczcccscccc" />
        </g>
      </g>
      <g
         id="g1886"
         style="stroke-width:0.553859"
         transform="matrix(1.8055135,0,0,1.8055135,-165.67903,-134.85036)">
        <g
           id="g18767"
           transform="translate(5.2916667,2.6458333)"
           style="stroke-width:0.553859">
          <path
             inkscape:connector-curvature="0"
             id="path18694"
             style="font-style:normal;font-variant:normal;font-weight:bold;font-stretch:expanded;font-size:122.341px;line-height:1.25;font-family:Comfortaa;-inkscape-font-specification:'Comfortaa Bold Expanded';letter-spacing:0px;word-spacing:0px;fill:#ffffff;fill-opacity:1;stroke:none;stroke-width:0.102356"
             d="m 13.667716,218.74747 q 0.187692,-0.22018 1.007041,-1.24889 0.07581,-0.0722 0.252666,-0.10467 0.357336,0.0866 0.357336,0.33568 v 0.0794 q 0,0.12271 -0.501716,0.70744 l -0.649705,0.81935 q 1.151421,1.37882 1.151421,1.4835 v 0.0794 q 0,0.28514 -0.353728,0.34651 h -0.01805 q -0.21657,0 -0.436749,-0.34651 l -0.808519,-0.9926 q -0.985386,1.23082 -1.057576,1.28136 -0.09385,0.0578 -0.1913,0.0578 h -0.01083 q -0.306803,0 -0.360946,-0.37899 0,-0.15161 0.53059,-0.75077 l 0.61722,-0.79409 -1.115322,-1.39686 -0.0361,-0.15521 q 0.07581,-0.37178 0.375384,-0.37178 0.220179,0 0.498108,0.42592 0.59195,0.70745 0.750768,0.92402 z" />
          <path
             inkscape:connector-curvature="0"
             id="path18690"
             style="font-style:normal;font-variant:normal;font-weight:bold;font-stretch:expanded;font-size:122.341px;line-height:1.25;font-family:Comfortaa;-inkscape-font-specification:'Comfortaa Bold Expanded';letter-spacing:0px;word-spacing:0px;fill:#ffffff;fill-opacity:1;stroke:none;stroke-width:0.102356"
             d="m -1.110882,217.39752 q 0.27071003,0 0.34650958,0.23823 0.29236714,-0.23823 0.8482255,-0.23823 0.73633171,0 1.18751592,0.54865 0.1552075,-0.28877 0.8698829,-0.50534 l 0.3176331,-0.0433 q 0.8987584,0 1.4149131,0.85183 0.1732552,0.35734 0.1732552,0.68579 v 1.978 q 0,0.26349 -0.3501192,0.33207 H 3.6644491 Q 3.31433,221.18389 3.31433,220.88429 v -1.92024 q 0,-0.5775 -0.6063908,-0.79769 l -0.1660361,-0.0217 H 2.4155715 q -0.4800593,0 -0.7363318,0.56308 -0.032486,0.11911 -0.032486,0.20213 v 1.97437 q -0.064971,0.36096 -0.3573378,0.36096 h -0.025266 q -0.35011915,-0.0614 -0.35011915,-0.34651 v -1.63149 q 0,-0.63166 -0.15520694,-0.77602 Q 0.4989422,218.14464 0.0946815,218.14464 H 0.05497752 q -0.55585891,0 -0.78325552,0.59917 -0.0360946,0.14438 -0.0360946,0.39344 v 1.76142 q 0,0.28514 -0.3501192,0.34651 h -0.021657 q -0.292367,0 -0.3609472,-0.36096 v -3.07887 q 0.039705,-0.40787 0.3862139,-0.40787 z" />
          <path
             inkscape:connector-curvature="0"
             id="path18692"
             d="m 8.2817581,217.31089 q 0.3573366,0.0902 0.3573366,0.3393 v 3.2413 q 0,0.29237 -0.3609446,0.35373 h -0.021659 q -0.2959772,0 -0.3645589,-0.36817 v -3.15467 q 0.04331,-0.41149 0.3898232,-0.41149 z"
             style="font-style:normal;font-variant:normal;font-weight:bold;font-stretch:expanded;font-size:122.341px;line-height:1.25;font-family:Comfortaa;-inkscape-font-specification:'Comfortaa Bold Expanded';letter-spacing:0px;word-spacing:0px;fill:#ffffff;fill-opacity:1;stroke:none;stroke-width:0.102356" />
        </g>
        <path
           d="m -1.9390654,220.09439 c -0.7103835,0.27455 -1.1925203,0.94897 -1.1945009,1.78147 -0.00208,0.87204 0.609053,1.99745 1.874662,2.00576 0.85126123,0.006 1.27695903,-0.31274 1.50677143,-0.52889 0.152441,-0.13509 0.1631045,-0.3695 0.023421,-0.51761 -0.1399636,-0.1484 -0.3749349,-0.15196 -0.5190102,-0.008 -0.1715374,0.16116 -0.4241429,0.39996 -1.14055063,0.32043 -0.3073903,-0.034 -0.6376663,-0.28359 -0.7479133,-0.47454 l 2.34725093,-0.99794 c 0.1794841,-0.0797 0.2619413,-0.28808 0.1859668,-0.4691 -0.4190255,-0.82453 -1.1619898,-1.56574 -2.33609763,-1.11196 z m 1.47331123,1.08472 -1.95323983,0.83429 c -0.1394642,-0.52048 0.4322018,-1.13284 0.7440332,-1.24679 0.4675426,-0.17085 0.98340913,0.0214 1.20920663,0.4125 z"
           style="fill:#ffffff;fill-opacity:1;fill-rule:evenodd;stroke:none;stroke-width:0.195389"
           id="path1822-3"
           sodipodi:nodetypes="ssscccccccsccsc" />
        <path
           style="color:#000000;font-style:normal;font-variant:normal;font-weight:normal;font-stretch:normal;font-size:medium;line-height:normal;font-family:sans-serif;font-variant-ligatures:normal;font-variant-position:normal;font-variant-caps:normal;font-variant-numeric:normal;font-variant-alternates:normal;font-feature-settings:normal;text-indent:0;text-align:start;text-decoration:none;text-decoration-line:none;text-decoration-style:solid;text-decoration-color:#000000;letter-spacing:normal;word-spacing:normal;text-transform:none;writing-mode:lr-tb;direction:ltr;text-orientation:mixed;dominant-baseline:auto;baseline-shift:baseline;text-anchor:start;white-space:normal;shape-padding:0;clip-rule:nonzero;display:inline;overflow:visible;visibility:visible;isolation:auto;mix-blend-mode:normal;color-interpolation:sRGB;color-interpolation-filters:linearRGB;solid-color:#000000;solid-opacity:1;vector-effect:none;fill:#ffffff;fill-opacity:1;fill-rule:nonzero;stroke:none;stroke-width:1.17233;stroke-linecap:round;stroke-linejoin:round;stroke-miterlimit:4;stroke-dasharray:none;stroke-dashoffset:0;stroke-opacity:1;color-rendering:auto;image-rendering:auto;shape-rendering:auto;text-rendering:auto;enable-background:accumulate"
           d="m -8.0885759,219.94844 c -0.3184156,0 -0.3714902,0.26277 -0.3698258,0.36876 v 3.19118 c -0.0087,0.20629 0.1620578,0.37812 0.375795,0.37812 0.2137353,0 0.3845124,-0.17183 0.375791,-0.37812 0,0 0.00567,-1.18681 0,-1.94653 -0.00567,-0.75971 0.6126609,-0.92438 0.8278091,-0.92438 0.1597666,0 0.2874159,0.089 0.4140154,0.0842 0.1879004,-0.007 0.3421868,-0.13307 0.3421868,-0.35404 -0.00565,-0.35694 -0.4435901,-0.40761 -0.7664682,-0.40102 -0.3228801,0.007 -0.5955674,0.10574 -0.8316649,0.24673 0,0 -0.049221,-0.26493 -0.3676384,-0.26493 z"
           id="path1826-6"
           inkscape:connector-curvature="0"
           sodipodi:nodetypes="zccsczcsczcz" />
      </g>
    </g>
  </g>
</svg>
